<?xml version="1.0" encoding="UTF-8"?>
<svg version="1.1" xmlns="http://www.w3.org/2000/svg" width="626" height="378">
<path d="M0 0 C0.74935822 -0.00807175 1.49871643 -0.01614349 2.27078247 -0.02445984 C3.86637038 -0.03832813 5.4619883 -0.04903794 7.05761719 -0.05688477 C9.46349653 -0.07390524 11.8679308 -0.11773739 14.2734375 -0.16210938 C25.91563063 -0.28161435 34.9386612 1.3149583 44.8203125 7.98828125 C45.74199219 8.601875 46.66367188 9.21546875 47.61328125 9.84765625 C48.27972656 10.3065625 48.94617188 10.76546875 49.6328125 11.23828125 C50.70208984 10.53251953 50.70208984 10.53251953 51.79296875 9.8125 C61.47777144 3.51672652 68.82780853 0.07234646 80.5234375 0.10546875 C81.26865662 0.10451202 82.01387573 0.1035553 82.78167725 0.10256958 C84.34826747 0.10189179 85.91486055 0.10371798 87.48144531 0.10791016 C89.88873506 0.1132945 92.29584079 0.10793616 94.703125 0.1015625 C96.22656291 0.10222276 97.75000071 0.10350284 99.2734375 0.10546875 C99.99629944 0.10344452 100.71916138 0.10142029 101.46392822 0.09933472 C106.5178403 0.12330905 106.5178403 0.12330905 107.6328125 1.23828125 C107.73069514 2.72879393 107.75913032 4.2239283 107.75979614 5.71765137 C107.76402588 7.1689872 107.76402588 7.1689872 107.76834106 8.64964294 C107.76530472 10.25489586 107.76530472 10.25489586 107.76220703 11.89257812 C107.76483551 13.57287865 107.76483551 13.57287865 107.76751709 15.28712463 C107.77193827 19.01044234 107.76899667 22.73371301 107.765625 26.45703125 C107.76629796 29.03153492 107.76726792 31.60603854 107.76852417 34.18054199 C107.7700015 39.584398 107.76794004 44.98823615 107.76318359 50.39208984 C107.757741 56.64789597 107.75950367 62.90366951 107.76501 69.15947485 C107.77008684 75.16679175 107.76955958 81.17409265 107.76662827 87.18141174 C107.76595873 89.74280298 107.76678834 92.30419505 107.76910782 94.86558533 C107.77163277 98.43840778 107.76779596 102.01116668 107.76220703 105.58398438 C107.76423126 106.65415298 107.76625549 107.72432159 107.76834106 108.82691956 C107.76552124 109.79447678 107.76270142 110.762034 107.75979614 111.75891113 C107.7592306 113.02765453 107.7592306 113.02765453 107.75865364 114.32202911 C107.6328125 116.23828125 107.6328125 116.23828125 106.6328125 117.23828125 C105.15497449 117.33612899 103.67247982 117.3645989 102.19140625 117.36526489 C100.75269165 117.36949463 100.75269165 117.36949463 99.28491211 117.37380981 C98.22409424 117.37178558 97.16327637 117.36976135 96.0703125 117.36767578 C94.40464233 117.37030426 94.40464233 117.37030426 92.70532227 117.37298584 C89.01447004 117.37740697 85.32366526 117.37446544 81.6328125 117.37109375 C79.08072907 117.37176671 76.52864571 117.37273667 73.9765625 117.37399292 C68.61978488 117.37547025 63.26302445 117.37340881 57.90625 117.36865234 C51.70497535 117.36320976 45.50373357 117.36497243 39.30245972 117.37047875 C33.34747035 117.37555562 27.39249123 117.37502832 21.4375 117.37209702 C18.89843745 117.37142749 16.35937408 117.37225707 13.8203125 117.37457657 C10.27862286 117.37710155 6.73699733 117.37326467 3.1953125 117.36767578 C2.13449463 117.36970001 1.07367676 117.37172424 -0.01928711 117.37380981 C-0.97843018 117.37098999 -1.93757324 117.36817017 -2.92578125 117.36526489 C-3.76423584 117.36488787 -4.60269043 117.36451084 -5.46655273 117.36412239 C-7.3671875 117.23828125 -7.3671875 117.23828125 -8.3671875 116.23828125 C-8.46507014 114.74776857 -8.49350532 113.2526342 -8.49417114 111.75891113 C-8.49699097 110.79135391 -8.49981079 109.82379669 -8.50271606 108.82691956 C-8.50069183 107.75675095 -8.4986676 106.68658234 -8.49658203 105.58398438 C-8.49833435 104.46378403 -8.50008667 103.34358368 -8.50189209 102.18943787 C-8.50631327 98.46612016 -8.50337167 94.74284949 -8.5 91.01953125 C-8.50067296 88.44502758 -8.50164292 85.87052396 -8.50289917 83.29602051 C-8.5043765 77.8921645 -8.50231504 72.48832635 -8.49755859 67.08447266 C-8.492116 60.82866653 -8.49387867 54.57289299 -8.499385 48.31708765 C-8.50446184 42.30977075 -8.50393458 36.30246985 -8.50100327 30.29515076 C-8.50033373 27.73375952 -8.50116334 25.17236745 -8.50348282 22.61097717 C-8.50600777 19.03815472 -8.50217096 15.46539582 -8.49658203 11.89257812 C-8.49860626 10.82240952 -8.50063049 9.75224091 -8.50271606 8.64964294 C-8.49989624 7.68208572 -8.49707642 6.7145285 -8.49417114 5.71765137 C-8.49379412 4.87182243 -8.49341709 4.0259935 -8.49302864 3.15453339 C-8.19667884 -1.35814769 -3.51486536 0.03576745 0 0 Z M0.6328125 9.23828125 C0.47328152 31.805779 0.74696024 54.3621147 1.1328125 76.92578125 C1.14477032 77.62524746 1.15672813 78.32471367 1.16904831 79.04537582 C1.31876246 87.77643188 1.47347878 96.50739541 1.6328125 105.23828125 C4.994268 106.919009 8.79268718 106.36704954 12.48876953 106.35180664 C13.40589722 106.35195267 14.3230249 106.35209869 15.26794434 106.35224915 C18.30886169 106.35155073 21.3497183 106.34376165 24.390625 106.3359375 C26.49526943 106.33407307 28.5999143 106.33264928 30.70455933 106.33164978 C36.25137525 106.3278266 41.7981651 106.31799799 47.3449707 106.3069458 C53.0021123 106.29672741 58.65925809 106.29215124 64.31640625 106.28710938 C75.42188647 106.27637556 86.52734732 106.25930151 97.6328125 106.23828125 C97.78637789 93.73877191 97.93455967 81.23921164 98.0757761 68.73955631 C98.14151236 62.93611711 98.20913691 57.13271246 98.28100586 51.3293457 C98.35023263 45.73381845 98.41459214 40.13825485 98.47550774 34.54263115 C98.49967283 32.40267321 98.52562274 30.26273469 98.55334663 28.1228199 C98.59173562 25.13667975 98.62390496 22.15053493 98.65454102 19.16430664 C98.66748703 18.27023102 98.68043304 17.3761554 98.69377136 16.45498657 C98.71180007 14.38273027 98.67809875 12.3101211 98.6328125 10.23828125 C96.49508235 8.1005511 91.83227593 8.99782281 88.8828125 8.98828125 C76.62027905 9.00434671 66.46226997 10.38995474 56.6328125 18.23828125 C58.12664034 21.61094411 60.10466661 24.07925941 62.5078125 26.86328125 C68.41828932 34.20301883 71.41936459 41.10065201 71.015625 50.62890625 C70.19684397 56.20998508 67.90130182 60.37462407 63.6953125 64.11328125 C57.19062921 68.62673496 51.38587462 68.91246056 43.6328125 68.23828125 C37.52651928 66.1288345 33.10844183 61.62550671 29.6328125 56.23828125 C27.43223165 49.03638028 28.01197598 42.16745429 31.359375 35.47265625 C34.58159527 29.81894461 37.92679649 24.76329664 42.6328125 20.23828125 C42.6328125 19.57828125 42.6328125 18.91828125 42.6328125 18.23828125 C32.878173 10.14400592 22.02063946 9.05393391 9.6953125 9.17578125 C8.82068359 9.18029297 7.94605469 9.18480469 7.04492188 9.18945312 C4.90752203 9.20113291 2.77015787 9.21906436 0.6328125 9.23828125 Z M47.046875 27.671875 C41.86258366 33.47873407 37.60536821 39.42282164 37.1328125 47.42578125 C37.78430793 52.39343391 39.41795338 55.4980348 43.3828125 58.61328125 C48.02568982 59.90296939 52.05897572 59.90279011 56.4453125 58.05078125 C59.57944731 55.45392669 61.26528779 53.31419003 61.98828125 49.23046875 C62.56465032 40.28895936 57.550592 33.95263681 51.96484375 27.453125 C49.91579383 25.5843434 49.05364774 25.85787107 47.046875 27.671875 Z " fill="#AD5BF1" transform="translate(133.3671875,113.76171875)"/>
<path d="M0 0 C0.33 0 0.66 0 1 0 C0.99214478 0.92111572 0.99214478 0.92111572 0.98413086 1.86083984 C0.96307871 4.69888241 0.95025137 7.53690846 0.9375 10.375 C0.92493164 11.82326172 0.92493164 11.82326172 0.91210938 13.30078125 C0.46226299 23.92635175 0.46226299 23.92635175 3 34 C3.0969462 36.14937017 3.12796872 38.3018142 3.12939453 40.45336914 C3.13202301 41.44626198 3.13202301 41.44626198 3.13470459 42.45921326 C3.13911264 44.65122077 3.13618914 46.84314789 3.1328125 49.03515625 C3.13348576 50.55447912 3.13445597 52.07380189 3.13571167 53.59312439 C3.13718716 56.77832057 3.13503857 59.96348872 3.13037109 63.14868164 C3.12466904 67.24020901 3.12795675 71.33167086 3.13394356 75.42319584 C3.13754906 78.5603434 3.13641072 81.69747531 3.13381577 84.83462334 C3.13314672 86.34377487 3.13397415 87.85292781 3.13629532 89.36207771 C3.1388222 91.46676552 3.13498103 93.57134565 3.12939453 95.67602539 C3.12859894 96.87578506 3.12780334 98.07554474 3.12698364 99.31166077 C3 102 3 102 2 103 C0.52216199 103.09784774 -0.96033268 103.12631765 -2.44140625 103.12698364 C-3.88012085 103.13121338 -3.88012085 103.13121338 -5.34790039 103.13552856 C-6.40871826 103.13350433 -7.46953613 103.1314801 -8.5625 103.12939453 C-10.22817017 103.13202301 -10.22817017 103.13202301 -11.92749023 103.13470459 C-15.61834246 103.13912572 -19.30914724 103.13618419 -23 103.1328125 C-25.55208343 103.13348546 -28.10416679 103.13445542 -30.65625 103.13571167 C-36.01302762 103.137189 -41.36978805 103.13512756 -46.7265625 103.13037109 C-52.92783715 103.12492851 -59.12907893 103.12669118 -65.33035278 103.1321975 C-71.28534215 103.13727437 -77.24032127 103.13674707 -83.1953125 103.13381577 C-85.73437505 103.13314624 -88.27343842 103.13397582 -90.8125 103.13629532 C-94.35418964 103.1388203 -97.89581517 103.13498342 -101.4375 103.12939453 C-102.49831787 103.13141876 -103.55913574 103.13344299 -104.65209961 103.13552856 C-105.61124268 103.13270874 -106.57038574 103.12988892 -107.55859375 103.12698364 C-108.39704834 103.12660662 -109.23550293 103.12622959 -110.09936523 103.12584114 C-112 103 -112 103 -113 102 C-113.11453648 98.96892205 -113.16396075 95.9616324 -113.16796875 92.9296875 C-113.17202225 91.99276062 -113.17607574 91.05583374 -113.18025208 90.09051514 C-113.18977841 87.01864289 -113.18963965 83.94688512 -113.1875 80.875 C-113.1882251 79.83833191 -113.1889502 78.80166382 -113.18969727 77.73358154 C-113.18832914 60.0810435 -112.52614042 42.58714478 -111 25 C-110.34 25 -109.68 25 -109 25 C-109 24.34 -109 23.68 -109 23 C-108.34 23 -107.68 23 -107 23 C-107.33 25.97 -107.66 28.94 -108 32 C-106.35 32.33 -104.7 32.66 -103 33 C-103 52.14 -103 71.28 -103 91 C-71.32 91.33 -39.64 91.66 -7 92 C-7 68.57 -7 45.14 -7 21 C-6.34 21 -5.68 21 -5 21 C-5 21.66 -5 22.32 -5 23 C-4.01 22.505 -4.01 22.505 -3 22 C-2.98018066 21.40461426 -2.96036133 20.80922852 -2.93994141 20.19580078 C-2.84483874 17.50507847 -2.73510158 14.81514852 -2.625 12.125 C-2.5940625 11.18785156 -2.563125 10.25070313 -2.53125 9.28515625 C-2.49257812 8.38925781 -2.45390625 7.49335938 -2.4140625 6.5703125 C-2.36693115 5.32918701 -2.36693115 5.32918701 -2.31884766 4.06298828 C-2 2 -2 2 0 0 Z " fill="#48DEC1" transform="translate(238,128)"/>
<path d="M0 0 C1.07194107 -0.0127597 2.14388214 -0.02551941 3.24830627 -0.03866577 C4.99505898 -0.04200424 4.99505898 -0.04200424 6.77709961 -0.04541016 C7.97370712 -0.05206696 9.17031464 -0.05872375 10.40318298 -0.06558228 C12.94276387 -0.0757275 15.48237152 -0.08039872 18.02197266 -0.08007812 C21.88937157 -0.08442759 25.75560772 -0.12066395 29.62280273 -0.15869141 C32.0908978 -0.16456403 34.55899828 -0.16853044 37.02709961 -0.17041016 C38.17743179 -0.18478119 39.32776398 -0.19915222 40.51295471 -0.21395874 C48.52229116 -0.16891007 54.88028338 1.06259731 61.20678711 6.18505859 C66.17139149 12.14501153 68.1403214 16.86198029 67.80444336 24.72802734 C67.18743216 30.12501691 65.43004702 34.18163035 61.86694336 38.29052734 C60.87694336 38.95052734 59.88694336 39.61052734 58.86694336 40.29052734 C59.26526367 40.69142578 59.66358398 41.09232422 60.07397461 41.50537109 C64.89571252 46.67906067 67.62899264 51.64688308 67.99584961 58.80615234 C67.6098958 66.43166391 64.57729122 72.02940317 58.99194336 77.16552734 C51.92687125 81.96977638 44.7189887 81.58558071 36.44116211 81.55615234 C35.25722366 81.5580658 34.07328522 81.55997925 32.85346985 81.56195068 C30.36145819 81.56330747 27.86943935 81.55964654 25.37744141 81.55126953 C21.55021488 81.54051546 17.72345269 81.55120665 13.89624023 81.56396484 C11.47371315 81.56264409 9.05118636 81.56008345 6.62866211 81.55615234 C4.90530891 81.56222504 4.90530891 81.56222504 3.1471405 81.56842041 C1.55957695 81.55896393 1.55957695 81.55896393 -0.06005859 81.54931641 C-1.46068291 81.54692963 -1.46068291 81.54692963 -2.88960266 81.54449463 C-5.13305664 81.29052734 -5.13305664 81.29052734 -7.13305664 79.29052734 C-6.57750109 74.73497179 -6.57750109 74.73497179 -5.13305664 73.29052734 C-3.51831544 73.1885221 -1.8991982 73.15483293 -0.28125 73.14868164 C1.27155418 73.13812996 1.27155418 73.13812996 2.85572815 73.12736511 C3.98478073 73.12320084 5.11383331 73.11903656 6.27709961 73.11474609 C8.65275939 73.09153536 11.02841045 73.06741753 13.40405273 73.04248047 C17.16086547 73.00743877 20.91736057 72.97807067 24.67431641 72.96459961 C28.29230708 72.94907585 31.90935849 72.90881922 35.52709961 72.86474609 C36.64198257 72.86665451 37.75686554 72.86856293 38.90553284 72.87052917 C45.66556501 72.76508829 50.12235344 71.9382772 55.86694336 68.29052734 C58.55282841 64.79073773 59.09096783 62.09035186 58.86694336 57.79052734 C58.10503586 52.93234298 56.4933065 50.59454709 52.86694336 47.29052734 C47.08610503 44.57209089 40.977675 44.95839721 34.72241211 44.91162109 C33.55688309 44.89462662 32.39135406 44.87763214 31.19050598 44.86012268 C27.47853968 44.80710503 23.76658444 44.76672302 20.05444336 44.72802734 C16.32450428 44.68414571 12.59465297 44.63753408 8.86482239 44.58522034 C6.54562483 44.55317652 4.22634909 44.52631385 1.9070282 44.50498962 C0.86537003 44.49149979 -0.17628815 44.47800995 -1.24951172 44.46411133 C-2.17073318 44.45459946 -3.09195465 44.44508759 -4.04109192 44.43528748 C-6.13305664 44.29052734 -6.13305664 44.29052734 -7.13305664 43.29052734 C-7.25805664 40.79052734 -7.25805664 40.79052734 -7.13305664 38.29052734 C-5.49494056 36.65241126 -3.61659399 37.14081088 -1.35717773 37.11694336 C-0.33876801 37.10345352 0.67964172 37.08996368 1.72891235 37.07606506 C2.83922821 37.06562668 3.94954407 37.05518829 5.09350586 37.04443359 C7.4281448 37.01147893 9.76278012 36.97826757 12.09741211 36.94482422 C15.7905819 36.89750104 19.48373878 36.85311486 23.17700195 36.8137207 C26.73266564 36.77388467 30.28801608 36.7223478 33.84350586 36.66943359 C34.94167633 36.66101944 36.0398468 36.65260529 37.17129517 36.64393616 C47.1861842 36.55097376 47.1861842 36.55097376 55.74194336 31.85302734 C59.12234175 27.77666458 59.29858307 24.47020384 58.86694336 19.29052734 C57.48767453 15.44433771 55.96033132 13.02965116 52.54614258 10.72167969 C47.2201871 8.64996429 42.20694797 8.83008251 36.53881836 8.81396484 C35.35346497 8.79838531 34.16811157 8.78280579 32.94683838 8.76675415 C29.17021308 8.7193138 25.39377221 8.69148823 21.61694336 8.66552734 C17.82596146 8.62905714 14.03508458 8.58848533 10.24420166 8.5428772 C7.88712713 8.51561419 5.52997538 8.49427884 3.17279053 8.4793396 C1.58038544 8.46394638 1.58038544 8.46394638 -0.04418945 8.44824219 C-0.9809552 8.44174652 -1.91772095 8.43525085 -2.88287354 8.42855835 C-5.13305664 8.29052734 -5.13305664 8.29052734 -7.13305664 7.29052734 C-7.25805664 4.91552734 -7.25805664 4.91552734 -7.13305664 2.29052734 C-4.56507861 -0.27745069 -3.56890965 0.02877678 0 0 Z " fill="#0A0614" transform="translate(429.133056640625,156.70947265625)"/>
<path d="M0 0 C1.40114493 -0.01145438 2.80224852 -0.03180141 4.203125 -0.06152344 C14.28142007 -0.27494055 23.27032898 0.2621873 31.77661133 6.18969727 C40.7672059 15.8703594 41.21019929 25.24485329 41.26098633 37.99438477 C41.2666864 39.10699173 41.27238647 40.21959869 41.27825928 41.36592102 C41.28767238 43.70829323 41.29422852 46.05067847 41.2980957 48.39306641 C41.30785709 51.98110656 41.33893799 55.56858684 41.37036133 59.15649414 C41.37688672 61.43578763 41.38213901 63.71508519 41.38598633 65.99438477 C41.39833313 67.06734299 41.41067993 68.14030121 41.42340088 69.24577332 C41.42039978 70.2439357 41.41739868 71.24209808 41.41430664 72.27050781 C41.41977509 73.58452827 41.41977509 73.58452827 41.425354 74.9250946 C40.98479524 77.76639131 39.93174794 79.15721627 38.05786133 81.29516602 C34.18286133 80.42016602 34.18286133 80.42016602 33.05786133 79.29516602 C32.95056909 77.65525289 32.91162558 76.01081075 32.90014648 74.36743164 C32.88988434 73.31543579 32.87962219 72.26343994 32.86904907 71.17956543 C32.86174774 70.03177612 32.85444641 68.88398682 32.84692383 67.70141602 C32.81883597 65.2847428 32.7901714 62.86807623 32.76098633 60.45141602 C32.71984454 56.63110677 32.6829705 52.81091906 32.65649414 48.99047852 C32.62876062 45.3105271 32.58286439 41.63114555 32.53442383 37.95141602 C32.53117096 36.81982056 32.52791809 35.6882251 32.52456665 34.52233887 C32.37200433 23.9444173 32.37200433 23.9444173 27.71255493 14.71203613 C22.65815706 10.23694032 18.01009601 9.04242664 11.40161133 9.02954102 C10.13188477 9.02696289 8.8621582 9.02438477 7.55395508 9.02172852 C6.23524414 9.02946289 4.9165332 9.03719727 3.55786133 9.04516602 C2.23915039 9.03743164 0.92043945 9.02969727 -0.43823242 9.02172852 C-1.70795898 9.02430664 -2.97768555 9.02688477 -4.28588867 9.02954102 C-6.02128906 9.0329248 -6.02128906 9.0329248 -7.79174805 9.03637695 C-13.69592966 9.52137637 -18.72931394 12.18661213 -22.94213867 16.29516602 C-26.55113076 23.04231808 -26.41187392 30.53107662 -26.45385742 37.98657227 C-26.47180862 39.17242416 -26.48975983 40.35827606 -26.508255 41.58006287 C-26.56210636 45.33922857 -26.59617366 49.09826913 -26.62963867 52.85766602 C-26.66283387 55.41823021 -26.69732555 57.97877794 -26.7331543 60.53930664 C-26.81781844 66.79114748 -26.88627428 73.04300503 -26.94213867 79.29516602 C-29.31713867 80.35766602 -29.31713867 80.35766602 -31.94213867 81.29516602 C-33.94213867 80.29516602 -33.94213867 80.29516602 -34.94213867 77.29516602 C-35.03901832 75.71210187 -35.08027656 74.12531641 -35.08740234 72.53930664 C-35.0937822 71.57400024 -35.10016205 70.60869385 -35.10673523 69.61413574 C-35.10784805 68.57043823 -35.10896088 67.52674072 -35.11010742 66.45141602 C-35.11343582 65.37194702 -35.11676422 64.29247803 -35.12019348 63.18029785 C-35.1252614 60.89046657 -35.12760185 58.6006279 -35.12744141 56.31079102 C-35.12961271 52.83670525 -35.14772784 49.36294494 -35.16674805 45.88891602 C-35.16968517 43.65975043 -35.17166783 41.43058334 -35.17260742 39.20141602 C-35.17979294 38.17391235 -35.18697845 37.14640869 -35.19438171 36.08776855 C-35.15884001 24.64508545 -34.11549358 14.85405653 -25.94213867 6.29516602 C-17.67333371 0.23972804 -9.9351083 0.05637757 0 0 Z " fill="#090613" transform="translate(371.942138671875,156.704833984375)"/>
<path d="M0 0 C0.33 0 0.66 0 1 0 C0.99214478 0.92111572 0.99214478 0.92111572 0.98413086 1.86083984 C0.96307871 4.69888241 0.95025137 7.53690846 0.9375 10.375 C0.92493164 11.82326172 0.92493164 11.82326172 0.91210938 13.30078125 C0.90727539 14.74130859 0.90727539 14.74130859 0.90234375 16.2109375 C0.89448853 17.51490479 0.89448853 17.51490479 0.88647461 18.84521484 C0.98155139 21.48732701 1.20378278 24.03977999 1.49121094 26.66479492 C2.06617777 32.16519035 2.19605993 37.62503426 2.23828125 43.15234375 C2.246353 44.17429337 2.25442474 45.19624298 2.26274109 46.24916077 C2.27646876 48.38947912 2.2872406 50.52981832 2.29516602 52.67016602 C2.30678884 54.86098638 2.32739872 57.05177626 2.35668945 59.24243164 C2.39910102 62.42092964 2.41548619 65.59859907 2.42578125 68.77734375 C2.44328934 69.75855698 2.46079742 70.7397702 2.47883606 71.75071716 C2.47591049 72.659189 2.47298492 73.56766083 2.4699707 74.50366211 C2.47583694 75.30178818 2.48170319 76.09991425 2.48774719 76.92222595 C2 79 2 79 -0.02937317 80.78102112 C-0.67968002 81.18328415 -1.32998688 81.58554718 -2 82 C-2.66 81.34 -3.32 80.68 -4 80 C-4.33 84.62 -4.66 89.24 -5 94 C-10.50281313 94.94074605 -15.75698848 95.10719394 -21.33178711 95.02172852 C-22.23989136 95.01212097 -23.14799561 95.00251343 -24.08361816 94.99261475 C-27.06494363 94.95981243 -30.04611382 94.91940944 -33.02734375 94.87890625 C-35.10241662 94.85458676 -37.17749514 94.83074414 -39.25257874 94.80735779 C-44.6990911 94.7446988 -50.14550291 94.67558111 -55.59191895 94.60510254 C-61.15563398 94.53425434 -66.71941999 94.46953621 -72.28320312 94.40429688 C-83.18888009 94.27551911 -94.09446064 94.13991566 -105 94 C-105.33 91.36 -105.66 88.72 -106 86 C-106 86.66 -106 87.32 -106 88 C-107.98 88.495 -107.98 88.495 -110 89 C-115.66956676 69.60912881 -112.57215266 44.9045756 -111 25 C-110.34 25 -109.68 25 -109 25 C-109 24.34 -109 23.68 -109 23 C-108.34 23 -107.68 23 -107 23 C-107.33 25.97 -107.66 28.94 -108 32 C-106.35 32.33 -104.7 32.66 -103 33 C-103 52.14 -103 71.28 -103 91 C-71.32 91.33 -39.64 91.66 -7 92 C-7 68.57 -7 45.14 -7 21 C-6.34 21 -5.68 21 -5 21 C-5 21.66 -5 22.32 -5 23 C-4.01 22.505 -4.01 22.505 -3 22 C-2.98018066 21.40461426 -2.96036133 20.80922852 -2.93994141 20.19580078 C-2.84483874 17.50507847 -2.73510158 14.81514852 -2.625 12.125 C-2.5940625 11.18785156 -2.563125 10.25070313 -2.53125 9.28515625 C-2.49257812 8.38925781 -2.45390625 7.49335938 -2.4140625 6.5703125 C-2.36693115 5.32918701 -2.36693115 5.32918701 -2.31884766 4.06298828 C-2 2 -2 2 0 0 Z " fill="#71D6D1" transform="translate(238,128)"/>
<path d="M0 0 C4.875 0.875 4.875 0.875 6 2 C6.09432985 4.20867831 6.11742431 6.42041521 6.11352539 8.63110352 C6.11367142 9.32375305 6.11381744 10.01640259 6.1139679 10.7300415 C6.11326874 13.02969446 6.10547628 15.32926737 6.09765625 17.62890625 C6.09579208 19.21931412 6.09436817 20.80972257 6.09336853 22.40013123 C6.08954329 26.5939593 6.07971295 30.78775295 6.06866455 34.98156738 C6.05845057 39.25788914 6.05387094 43.53421644 6.04882812 47.81054688 C6.03809069 56.20704708 6.02101419 64.60351926 6 73 C6.80988373 72.99555878 7.61976746 72.99111755 8.45419312 72.98654175 C16.07652597 72.94651249 23.69880806 72.91603985 31.32121849 72.89637566 C35.24023284 72.88592635 39.15916053 72.87174638 43.078125 72.84912109 C46.85823039 72.82743339 50.63825228 72.81544002 54.41841507 72.81024551 C55.86255839 72.80654241 57.306697 72.7993114 58.7508049 72.78853989 C60.76920894 72.77407983 62.78769652 72.77318355 64.80615234 72.77294922 C66.53156754 72.76628738 66.53156754 72.76628738 68.2918396 72.75949097 C71 73 71 73 73 75 C72.75 77.5625 72.75 77.5625 72 80 C69.11173993 81.44413004 66.60603642 81.13528761 63.37890625 81.14526367 C62.69907684 81.14862228 62.01924744 81.1519809 61.31881714 81.15544128 C59.06669296 81.16495744 56.81464305 81.16689459 54.5625 81.16796875 C53.00073211 81.1711804 51.43896452 81.17454441 49.87719727 81.17805481 C46.60204368 81.18404741 43.32691649 81.18589453 40.05175781 81.18530273 C35.84818186 81.185201 31.64477438 81.19886445 27.4412384 81.21607494 C24.21569028 81.22717369 20.99018319 81.22922262 17.76461792 81.22869301 C16.21442076 81.22987591 14.66422263 81.23431495 13.11404419 81.24202538 C10.94960593 81.25178447 8.78553752 81.24896388 6.62109375 81.24291992 C5.3880249 81.24434494 4.15495605 81.24576996 2.88452148 81.24723816 C0 81 0 81 -2 79 C-2.19815532 76.57690712 -2.27283408 74.26812163 -2.25878906 71.84399414 C-2.2622937 71.1072496 -2.26579834 70.37050507 -2.26940918 69.61143494 C-2.27823159 67.16924696 -2.27237506 64.72734732 -2.265625 62.28515625 C-2.26697165 60.59126225 -2.26891218 58.89736863 -2.27142334 57.20347595 C-2.27437541 53.65001757 -2.27007487 50.09665962 -2.26074219 46.54321289 C-2.24935626 41.98548657 -2.2559011 37.427996 -2.26788712 32.87027836 C-2.27511091 29.37102988 -2.27281525 25.87183736 -2.26763153 22.3725872 C-2.26629602 20.69204111 -2.26793931 19.01148997 -2.27259064 17.33094978 C-2.27766346 14.98229627 -2.26993479 12.63402537 -2.25878906 10.28540039 C-2.26283752 9.58867218 -2.26688599 8.89194397 -2.27105713 8.17410278 C-2.23915603 4.54988194 -2.07193103 3.10789655 0 0 Z " fill="#0A0715" transform="translate(255,157)"/>
<path d="M0 0 C0.66 0.33 1.32 0.66 2 1 C1.45276317 4.37462715 0.9451 6.08235 -1 9 C-0.01 9.33 0.98 9.66 2 10 C2 9.34 2 8.68 2 8 C6.62 8 11.24 8 16 8 C15.01 5.69 14.02 3.38 13 1 C16 2 16 2 16.9453125 3.7734375 C17.29335937 4.50820312 17.64140625 5.24296875 18 6 C19.2664229 7.56246981 20.56079243 9.10250292 21.875 10.625 C27.78371775 17.96255313 30.79548807 24.8669018 30.37890625 34.39453125 C29.38881923 41.20265538 26.0719917 45.45992337 20.87890625 49.7734375 C14.91011584 53.66990359 8.92100727 53.61123026 2 53 C-4.8406767 50.5124812 -9.35677563 46.24552749 -13 40 C-15.23373092 32.82543381 -14.60855754 25.90461508 -11.2734375 19.234375 C-8.48866498 14.34820972 -5.67067107 9.62670604 -1.625 5.6875 C0.46242779 3.91023787 0.46242779 3.91023787 0 0 Z M5.4140625 11.43359375 C0.22977116 17.24045282 -4.02744429 23.18454039 -4.5 31.1875 C-3.84850457 36.15515266 -2.21485912 39.25975355 1.75 42.375 C6.39287732 43.66468814 10.42616322 43.66450886 14.8125 41.8125 C17.94663481 39.21564544 19.63247529 37.07590878 20.35546875 32.9921875 C20.93183782 24.05067811 15.9177795 17.71435556 10.33203125 11.21484375 C8.28298133 9.34606215 7.42083524 9.61958982 5.4140625 11.43359375 Z " fill="#7B7DF5" transform="translate(175,130)"/>
<path d="M0 0 C0.98097656 -0.02449219 1.96195312 -0.04898438 2.97265625 -0.07421875 C8.8297945 -0.09793186 12.67522344 0.17016527 17.125 4.375 C20.6100484 9.50534509 21.69778902 13.25271083 21.515625 19.49609375 C21.50996521 20.24085464 21.50430542 20.98561554 21.49847412 21.75294495 C21.4762735 24.1068138 21.4261137 26.4590997 21.375 28.8125 C21.35491366 30.41859764 21.33666664 32.0247194 21.3203125 33.63085938 C21.27646309 37.5461729 21.20755471 41.4603191 21.125 45.375 C19.1875 45.9375 19.1875 45.9375 17.125 46.375 C15.2012042 44.4512042 15.96481578 40.85988062 15.94921875 38.234375 C15.92600984 36.75649634 15.90189208 35.27863173 15.87695312 33.80078125 C15.84190278 31.46588909 15.81253754 29.13150932 15.79907227 26.79638672 C15.78354681 24.54591237 15.74329942 22.29694798 15.69921875 20.046875 C15.70112717 19.35398376 15.70303558 18.66109253 15.70500183 17.94720459 C15.58538247 13.18098491 14.54828091 10.68913057 11.125 7.375 C7.46148419 6.15382806 4.06447028 6.19093646 0.25 6.1875 C-0.45769531 6.17525391 -1.16539062 6.16300781 -1.89453125 6.15039062 C-5.97645195 6.13898861 -9.37158689 6.18379718 -12.875 8.375 C-15.6509903 12.91687669 -16.27758564 16.46014489 -16.38671875 21.7421875 C-16.41364555 22.76156906 -16.41364555 22.76156906 -16.44111633 23.80154419 C-16.49486817 25.95096819 -16.52899936 28.10017477 -16.5625 30.25 C-16.59570438 31.71617587 -16.6301969 33.18232317 -16.66601562 34.6484375 C-16.75057198 38.22374948 -16.81755006 41.79913792 -16.875 45.375 C-18.8125 45.9375 -18.8125 45.9375 -20.875 46.375 C-23.56347592 43.68652408 -22.10510211 35.88864146 -22.11523438 32.01220703 C-22.12487099 29.77988437 -22.15584597 27.54850983 -22.1875 25.31640625 C-22.19403701 23.88542212 -22.19928474 22.45443141 -22.203125 21.0234375 C-22.2124707 19.72583496 -22.22181641 18.42823242 -22.23144531 17.09130859 C-21.738397 11.95077335 -20.30373762 8.08026748 -16.9375 4.0625 C-11.58977242 -0.31291347 -6.66430325 0.00868879 0 0 Z " fill="#090611" transform="translate(427.875,105.625)"/>
<path d="M0 0 C0.33 0 0.66 0 1 0 C1.02312589 8.8488239 1.04091634 17.69763747 1.05181217 26.54648495 C1.05704046 30.65494285 1.06413713 34.76338014 1.07543945 38.87182617 C1.08627025 42.83346828 1.09227724 46.79509052 1.09487724 50.75674629 C1.09673114 52.27148311 1.1003511 53.78621879 1.10573006 55.30094719 C1.11294307 57.41541813 1.11399083 59.52980594 1.11352539 61.64428711 C1.115746 62.85007919 1.11796661 64.05587128 1.12025452 65.29820251 C1 68 1 68 0 69 C-1.47783801 69.09784774 -2.96033268 69.12631765 -4.44140625 69.12698364 C-5.88012085 69.13121338 -5.88012085 69.13121338 -7.34790039 69.13552856 C-8.40871826 69.13350433 -9.46953613 69.1314801 -10.5625 69.12939453 C-12.22817017 69.13202301 -12.22817017 69.13202301 -13.92749023 69.13470459 C-17.61834246 69.13912572 -21.30914724 69.13618419 -25 69.1328125 C-27.55208343 69.13348546 -30.10416679 69.13445542 -32.65625 69.13571167 C-38.01302762 69.137189 -43.36978805 69.13512756 -48.7265625 69.13037109 C-54.92783715 69.12492851 -61.12907893 69.12669118 -67.33035278 69.1321975 C-73.28534215 69.13727437 -79.24032127 69.13674707 -85.1953125 69.13381577 C-87.73437505 69.13314624 -90.27343842 69.13397582 -92.8125 69.13629532 C-96.35418964 69.1388203 -99.89581517 69.13498342 -103.4375 69.12939453 C-104.49831787 69.13141876 -105.55913574 69.13344299 -106.65209961 69.13552856 C-107.61124268 69.13270874 -108.57038574 69.12988892 -109.55859375 69.12698364 C-110.39704834 69.12660662 -111.23550293 69.12622959 -112.09936523 69.12584114 C-114 69 -114 69 -115 68 C-115.09295815 66.55710213 -115.11746513 65.10970215 -115.11352539 63.66381836 C-115.11344986 62.7429393 -115.11337433 61.82206024 -115.11329651 60.87327576 C-115.10813522 59.87224319 -115.10297394 58.87121063 -115.09765625 57.83984375 C-115.0962413 56.82024063 -115.09482635 55.80063751 -115.09336853 54.75013733 C-115.08775097 51.47922893 -115.0751955 48.20838787 -115.0625 44.9375 C-115.05748726 42.72591244 -115.05292396 40.51432382 -115.04882812 38.30273438 C-115.03777584 32.86846643 -115.02102063 27.43423803 -115 22 C-114.67 22 -114.34 22 -114 22 C-113.34 32.56 -112.68 43.12 -112 54 C-110.68 54 -109.36 54 -108 54 C-108.20625 53.2575 -108.4125 52.515 -108.625 51.75 C-109 49 -109 49 -107 45 C-107 50.28 -107 55.56 -107 61 C-108.65 60.67 -110.3 60.34 -112 60 C-112 61.65 -112 63.3 -112 65 C-75.37 65.33 -38.74 65.66 -1 66 C-1 59.07 -1 52.14 -1 45 C-0.94410438 41.03304645 -0.88027513 37.07091908 -0.78125 33.10546875 C-0.75905396 32.13636063 -0.73685791 31.1672525 -0.71398926 30.16877747 C-0.64491786 27.17496025 -0.57254883 24.18123473 -0.5 21.1875 C-0.45160016 19.11523957 -0.40342212 17.04297394 -0.35546875 14.97070312 C-0.23952135 9.98040552 -0.12062425 4.99018665 0 0 Z " fill="#65C6BE" transform="translate(240,162)"/>
<path d="M0 0 C0.66 0.33 1.32 0.66 2 1 C2 1.66 2 2.32 2 3 C2.66 3 3.32 3 4 3 C5.56578896 7.69736687 5.80730756 12.10945093 5 17 C2.50681675 21.53507813 -0.84980699 24.27831027 -5.1875 27 C-11.65901637 28.69744692 -18.09595884 29.05601497 -24.4375 26.75 C-32.38862185 21.31996556 -32.38862185 21.31996556 -35 17 C-35.29296875 13.984375 -35.29296875 13.984375 -35.1875 10.75 C-35.14689453 9.13351563 -35.14689453 9.13351563 -35.10546875 7.484375 C-35.07066406 6.66453125 -35.03585938 5.8446875 -35 5 C-32.83125748 5.50603992 -31.00032373 5.99983813 -29 7 C-28.4121875 8.670625 -28.4121875 8.670625 -27.8125 10.375 C-26.48818738 13.59970124 -26.01973623 13.98800347 -22.8125 15.9375 C-17.60569352 17.38857722 -13.38417987 18.02953221 -8.25 15.8125 C-4.19365947 12.54489235 -1.92075849 9.98102305 -1.3125 4.75 C-1.209375 3.5125 -1.10625 2.275 -1 1 C-0.67 0.67 -0.34 0.34 0 0 Z " fill="#3CADEB" transform="translate(198,155)"/>
<path d="M0 0 C0.33 0 0.66 0 1 0 C0.99214478 0.92111572 0.99214478 0.92111572 0.98413086 1.86083984 C0.96307871 4.69888241 0.95025137 7.53690846 0.9375 10.375 C0.92912109 11.34050781 0.92074219 12.30601562 0.91210938 13.30078125 C0.90727539 14.74130859 0.90727539 14.74130859 0.90234375 16.2109375 C0.89448853 17.51490479 0.89448853 17.51490479 0.88647461 18.84521484 C0.98155139 21.48732701 1.20378278 24.03977999 1.49121094 26.66479492 C2.06617777 32.16519035 2.19605993 37.62503426 2.23828125 43.15234375 C2.246353 44.17429337 2.25442474 45.19624298 2.26274109 46.24916077 C2.27646876 48.38947912 2.2872406 50.52981832 2.29516602 52.67016602 C2.30678884 54.86098638 2.32739872 57.05177626 2.35668945 59.24243164 C2.39910102 62.42092964 2.41548619 65.59859907 2.42578125 68.77734375 C2.44328934 69.75855698 2.46079742 70.7397702 2.47883606 71.75071716 C2.47591049 72.659189 2.47298492 73.56766083 2.4699707 74.50366211 C2.47583694 75.30178818 2.48170319 76.09991425 2.48774719 76.92222595 C2 79 2 79 -0.02937317 80.78102112 C-1.00483345 81.38441566 -1.00483345 81.38441566 -2 82 C-3.5625 80.9375 -3.5625 80.9375 -5 79 C-4.625 75.375 -4.625 75.375 -4 72 C-4.33 71.67 -4.66 71.34 -5 71 C-6.20346685 59.92117147 -6.27943729 48.69437435 -6.5625 37.5625 C-6.6058482 35.94465416 -6.64946663 34.32681553 -6.69335938 32.70898438 C-6.79867401 28.80606538 -6.90038127 24.90306836 -7 21 C-6.34 21 -5.68 21 -5 21 C-5 21.66 -5 22.32 -5 23 C-4.34 22.67 -3.68 22.34 -3 22 C-2.98018066 21.40461426 -2.96036133 20.80922852 -2.93994141 20.19580078 C-2.84483874 17.50507847 -2.73510158 14.81514852 -2.625 12.125 C-2.57859375 10.71927734 -2.57859375 10.71927734 -2.53125 9.28515625 C-2.49257812 8.38925781 -2.45390625 7.49335938 -2.4140625 6.5703125 C-2.3826416 5.74289551 -2.3512207 4.91547852 -2.31884766 4.06298828 C-2 2 -2 2 0 0 Z " fill="#4CA5E8" transform="translate(238,128)"/>
<path d="M0 0 C3 1 3 1 4.68579102 3.98754883 C5.30246582 5.30578601 5.90775835 6.62938493 6.50390625 7.95703125 C6.82785873 8.65640305 7.15181122 9.35577484 7.48558044 10.07633972 C8.52104556 12.31735321 9.54197286 14.56465026 10.5625 16.8125 C11.25359035 18.31619998 11.94563651 19.81946108 12.63867188 21.32226562 C13.91304018 24.08687989 15.18077279 26.85436734 16.44360352 29.62426758 C17.58894091 32.10843701 18.75283247 34.56622953 20 37 C20.43868408 36.0212793 20.87736816 35.04255859 21.3293457 34.03417969 C22.96251337 30.39405249 24.60222271 26.7569034 26.24389648 23.12060547 C26.9527092 21.5481651 27.65975951 19.97492903 28.36499023 18.40087891 C29.38059523 16.13491314 30.40256152 13.87191059 31.42578125 11.609375 C31.73840408 10.90818542 32.05102692 10.20699585 32.37312317 9.48455811 C33.9468145 6.02140733 35.55150537 2.92377136 38 0 C38.99 0.33 39.98 0.66 41 1 C40.42813044 5.91524249 38.85555548 9.96014158 36.7265625 14.375 C36.23994644 15.40633057 36.23994644 15.40633057 35.74349976 16.45849609 C34.71095911 18.64237703 33.66810764 20.82114982 32.625 23 C31.93162102 24.46322405 31.23890625 25.92676306 30.546875 27.390625 C28.71063817 31.26669113 26.8652671 35.13779989 25 39 C24.47712402 40.1240625 23.95424805 41.248125 23.41552734 42.40625 C22 45 22 45 19.8125 45.875 C19.214375 45.91625 18.61625 45.9575 18 46 C15.27527728 40.69480459 12.62122286 35.3570655 10 30 C9.21351074 28.39366699 9.21351074 28.39366699 8.41113281 26.75488281 C6.71342775 23.26203918 5.04157715 19.7577898 3.375 16.25 C2.81780273 15.10740723 2.26060547 13.96481445 1.68652344 12.78759766 C0.9251709 11.16797119 0.9251709 11.16797119 0.1484375 9.515625 C-0.31385254 8.54915039 -0.77614258 7.58267578 -1.25244141 6.58691406 C-2 4 -2 4 -1.13427734 1.65527344 C-0.75996582 1.1090332 -0.3856543 0.56279297 0 0 Z " fill="#080612" transform="translate(255,106)"/>
<path d="M0 0 C1.32 0.66 2.64 1.32 4 2 C4 14.87 4 27.74 4 41 C15.38351809 40.92089892 15.38351809 40.92089892 26.7668457 40.81982422 C28.19482118 40.81398254 29.62279999 40.80888621 31.05078125 40.8046875 C32.16132874 40.7893396 32.16132874 40.7893396 33.29431152 40.77368164 C37.08298043 40.77239232 38.7659141 40.84394274 42 43 C41.67 43.99 41.34 44.98 41 46 C27.14 46 13.28 46 -1 46 C-1.02290475 39.60957479 -1.04283313 33.21929091 -1.05493164 26.82885742 C-1.05997308 24.65307127 -1.06680607 22.47728853 -1.07543945 20.30151367 C-1.08751338 17.18146933 -1.09323005 14.06146962 -1.09765625 10.94140625 C-1.10281754 9.96224747 -1.10797882 8.98308868 -1.11329651 7.97425842 C-1.11337204 7.07340012 -1.11344757 6.17254181 -1.11352539 5.24438477 C-1.115746 4.44718521 -1.11796661 3.64998566 -1.12025452 2.82862854 C-1 1 -1 1 0 0 Z " fill="#0B0713" transform="translate(455,106)"/>
<path d="M0 0 C0.66 0 1.32 0 2 0 C1.67 2.97 1.34 5.94 1 9 C2.32 9.33 3.64 9.66 5 10 C5.26088153 47.55891388 5.26088153 47.55891388 3 65 C1.02 65.495 1.02 65.495 -1 66 C-6.66956676 46.60912881 -3.57215266 21.9045756 -2 2 C-1.34 2 -0.68 2 0 2 C0 1.34 0 0.68 0 0 Z " fill="#42B1E3" transform="translate(129,151)"/>
<path d="M0 0 C0.74663406 -0.00095673 1.49326813 -0.00191345 2.26252747 -0.00289917 C3.83509404 -0.00357794 5.40766346 -0.00174479 6.98022461 0.00244141 C9.39638481 0.00781662 11.81236102 0.00247466 14.22851562 -0.00390625 C15.75651083 -0.00324586 17.28450592 -0.00196551 18.8125 0 C19.53849899 -0.00202423 20.26449799 -0.00404846 21.01249695 -0.00613403 C26.09206427 0.01784552 26.09206427 0.01784552 27.20703125 1.1328125 C27.30007143 2.60635598 27.3244939 4.08431841 27.32055664 5.56079102 C27.32048111 6.50169083 27.32040558 7.44259064 27.32032776 8.41200256 C27.31516647 9.43490891 27.31000519 10.45781525 27.3046875 11.51171875 C27.30327255 12.55351791 27.3018576 13.59531708 27.30039978 14.66868591 C27.29478205 18.01092344 27.28222655 21.35309507 27.26953125 24.6953125 C27.26451853 26.95507716 27.25995523 29.21484287 27.25585938 31.47460938 C27.24480686 37.02736641 27.22805149 42.58008475 27.20703125 48.1328125 C22.48290305 43.4086843 24.16026507 32.2814443 24.14111328 25.78515625 C24.1460375 22.23409036 24.17116367 18.68370306 24.20703125 15.1328125 C22.62299601 16.71684774 22.9872819 18.4099763 22.890625 20.60546875 C22.8277832 21.95415039 22.8277832 21.95415039 22.76367188 23.33007812 C22.72435547 24.27560547 22.68503906 25.22113281 22.64453125 26.1953125 C22.57975586 27.6194043 22.57975586 27.6194043 22.51367188 29.07226562 C22.40723849 31.42562603 22.30522117 33.77909604 22.20703125 36.1328125 C21.21703125 36.4628125 20.22703125 36.7928125 19.20703125 37.1328125 C19.20703125 36.4728125 19.20703125 35.8128125 19.20703125 35.1328125 C18.54703125 35.1328125 17.88703125 35.1328125 17.20703125 35.1328125 C17.53703125 25.8928125 17.86703125 16.6528125 18.20703125 7.1328125 C14.57703125 7.1328125 10.94703125 7.1328125 7.20703125 7.1328125 C7.20703125 6.1428125 7.20703125 5.1528125 7.20703125 4.1328125 C10.67203125 3.6378125 10.67203125 3.6378125 14.20703125 3.1328125 C5.62703125 3.1328125 -2.95296875 3.1328125 -11.79296875 3.1328125 C-11.79296875 2.4728125 -11.79296875 1.8128125 -11.79296875 1.1328125 C-7.91536372 -0.12739349 -4.02999648 -0.01133122 0 0 Z " fill="#AF5AF3" transform="translate(213.79296875,113.8671875)"/>
<path d="M0 0 C5.24414718 -0.31464883 8.53939419 0.16143267 13 3 C16.33834781 6.22323237 16.8452114 9.43373643 17 14 C15.67816654 17.96550037 14.41579611 21.43815291 11 24 C7.36766898 25.21077701 4.04878013 25.12444164 0.26953125 25.09765625 C-0.48088943 25.0962413 -1.23131012 25.09482635 -2.00447083 25.09336853 C-4.3988546 25.0877756 -6.79314453 25.07522444 -9.1875 25.0625 C-10.81184761 25.05748408 -12.43619668 25.05292134 -14.06054688 25.04882812 C-18.04040069 25.03780848 -22.02018444 25.02054873 -26 25 C-26 23.68 -26 22.36 -26 21 C-23.06950651 19.53475326 -20.4329283 19.85320767 -17.1640625 19.82421875 C-15.77602652 19.80101966 -14.38800563 19.77690228 -13 19.75195312 C-10.8120718 19.71684611 -8.62469896 19.68749815 -6.43652344 19.67407227 C-4.3241862 19.65857543 -2.21347015 19.61836133 -0.1015625 19.57421875 C1.16349121 19.55963623 2.42854492 19.54505371 3.73193359 19.5300293 C7.06354252 19.25029672 7.06354252 19.25029672 9.44775391 17.15551758 C11.3073686 15.02833607 11.3073686 15.02833607 10.9375 11.9375 C9.79673121 8.31785271 9.79673121 8.31785271 7 6 C4.67126625 5.31744011 2.33817209 4.64949225 0 4 C-0.33 3.34 -0.66 2.68 -1 2 C-0.67 1.34 -0.34 0.68 0 0 Z " fill="#080612" transform="translate(337,127)"/>
<path d="M0 0 C2.11578817 -0.00976593 4.23062844 -0.04084394 6.34619141 -0.07226562 C7.68863357 -0.07879059 9.03108265 -0.08404305 10.37353516 -0.08789062 C11.59443848 -0.09723633 12.8153418 -0.10658203 14.07324219 -0.11621094 C15.51739502 0.06022949 15.51739502 0.06022949 16.99072266 0.24023438 C17.65072266 1.23023437 18.31072266 2.22023438 18.99072266 3.24023438 C16.09738739 6.13356964 13.94518484 5.51080325 9.90087891 5.54882812 C8.46272378 5.57398635 7.02457283 5.5993844 5.58642578 5.625 C3.31731225 5.6537603 1.04827124 5.6777753 -1.22094727 5.6965332 C-3.40988719 5.71817291 -5.59797524 5.75760764 -7.78662109 5.79882812 C-9.09880615 5.81228271 -10.41099121 5.8257373 -11.76293945 5.83959961 C-14.94393263 5.98209453 -14.94393263 5.98209453 -16.94116211 7.54907227 C-18.73414076 10.38792098 -18.29958044 12.98883972 -18.00927734 16.24023438 C-16.36748376 19.36478496 -16.36748376 19.36478496 -13.84521484 19.97070312 C-13.03310547 20.12152344 -12.22099609 20.27234375 -11.38427734 20.42773438 C-10.56701172 20.58628906 -9.74974609 20.74484375 -8.90771484 20.90820312 C-7.96798828 21.07255859 -7.96798828 21.07255859 -7.00927734 21.24023438 C-7.00927734 22.56023437 -7.00927734 23.88023437 -7.00927734 25.24023438 C-12.28863933 26.65664857 -15.28265767 25.95366419 -20.00927734 23.24023438 C-22.87876344 20.00286544 -23.90962854 18.03742479 -24.44677734 13.74023438 C-23.85539806 9.00920011 -22.58585525 5.71509758 -19.07177734 2.42773438 C-13.32183344 -0.88283939 -6.4311567 0.01801865 0 0 Z " fill="#080611" transform="translate(335.00927734375,105.759765625)"/>
<path d="M0 0 C0.66 0 1.32 0 2 0 C2.33 12.21 2.66 24.42 3 37 C1.35 36.67 -0.3 36.34 -2 36 C-3.25541557 32.23375329 -2.37061958 30.62811066 -1 27 C-1.66 27 -2.32 27 -3 27 C-4.05209984 30.5609533 -4.29190423 34.03694428 -4.53515625 37.734375 C-4.62216797 39.02988281 -4.70917969 40.32539063 -4.79882812 41.66015625 C-4.88679728 43.02343243 -4.9746869 44.38671375 -5.0625 45.75 C-5.15396449 47.12892834 -5.24575775 48.50783491 -5.33789062 49.88671875 C-5.5618311 53.25761226 -5.7824043 56.62869196 -6 60 C-6.33 60 -6.66 60 -7 60 C-7.05067793 52.66767322 -7.08572428 45.33539156 -7.10986328 38.00292969 C-7.11992561 35.50812085 -7.13357679 33.01332382 -7.15087891 30.51855469 C-7.17511668 26.93421516 -7.18648082 23.35003147 -7.1953125 19.765625 C-7.20563507 18.64883362 -7.21595764 17.53204224 -7.22659302 16.38140869 C-7.22674408 15.34063171 -7.22689514 14.29985474 -7.22705078 13.22753906 C-7.231492 12.31264709 -7.23593323 11.39775513 -7.24050903 10.45513916 C-6.98635175 7.86067731 -6.31398098 6.23030607 -5 4 C-3.68 4 -2.36 4 -1 4 C-0.67 2.68 -0.34 1.36 0 0 Z " fill="#6583C9" transform="translate(132,124)"/>
<path d="M0 0 C0.99 0.33 1.98 0.66 3 1 C3.01458252 1.87213135 3.02916504 2.7442627 3.04418945 3.64282227 C3.10557372 6.90659996 3.17978388 10.16957957 3.26245117 13.43286133 C3.29551994 14.8399778 3.32360704 16.24722116 3.34643555 17.65454102 C3.38031799 19.68820824 3.43264218 21.72073135 3.48828125 23.75390625 C3.51446533 24.97408447 3.54064941 26.1942627 3.56762695 27.45141602 C4.07198263 31.59077785 5.11855518 34.29237923 7 38 C8.95379539 39.63047754 8.95379539 39.63047754 11.1875 40.4375 C11.90292969 40.74558594 12.61835938 41.05367187 13.35546875 41.37109375 C13.89816406 41.57863281 14.44085938 41.78617188 15 42 C15 43.32 15 44.64 15 46 C9.55797388 46.33318527 5.73943495 45.78790291 1 43 C-1.16639459 38.26321596 -1.27929132 33.69292459 -1.23046875 28.57421875 C-1.23001053 27.78602249 -1.22955231 26.99782623 -1.2290802 26.18574524 C-1.22607417 24.53095989 -1.21823765 22.87617696 -1.20581055 21.22143555 C-1.18743223 18.6781219 -1.18530192 16.13517033 -1.18554688 13.59179688 C-1.18063566 11.98176766 -1.17480908 10.37174092 -1.16796875 8.76171875 C-1.16685593 7.99824631 -1.1657431 7.23477386 -1.16459656 6.44816589 C-1.11609008 1.11609008 -1.11609008 1.11609008 0 0 Z " fill="#07060F" transform="translate(360,106)"/>
<path d="M0 0 C0.99 0.33 1.98 0.66 3 1 C3.09924823 5.87461475 3.17164581 10.74863497 3.21972656 15.62402344 C3.23978009 17.28070325 3.26703029 18.93731282 3.30175781 20.59375 C3.35055512 22.98194758 3.37303064 25.36920547 3.390625 27.7578125 C3.41127014 28.49242706 3.43191528 29.22704163 3.45318604 29.98391724 C3.45541927 35.16018556 2.25453892 38.016403 -1 42 C-5.40116157 45.71653644 -8.27956317 46.45763495 -14 46 C-13.67 44.35 -13.34 42.7 -13 41 C-11.906875 40.7525 -10.81375 40.505 -9.6875 40.25 C-5.75352066 38.91644768 -4.99959927 38.45602381 -3 35 C-2.45273015 32.44474869 -2.45273015 32.44474869 -2.375 29.5625 C-2.31054688 28.43457031 -2.24609375 27.30664062 -2.1796875 26.14453125 C-2.11788958 24.76310461 -2.05821704 23.38158218 -2 22 C-1.87736306 19.21078243 -1.75373287 16.4216231 -1.62744141 13.63256836 C-1.54292365 11.72088034 -1.46440843 9.80891689 -1.39208984 7.89672852 C-1.3555127 7.01815186 -1.31893555 6.1395752 -1.28125 5.234375 C-1.23581055 4.04666504 -1.23581055 4.04666504 -1.18945312 2.83496094 C-1 1 -1 1 0 0 Z " fill="#07050E" transform="translate(398,106)"/>
<path d="M0 0 C0.99 0.33 1.98 0.66 3 1 C3 15.52 3 30.04 3 45 C1.02 45.495 1.02 45.495 -1 46 C-2.5273211 44.4726789 -2.13452391 43.09995977 -2.14526367 40.97094727 C-2.15164352 40.11658585 -2.15802338 39.26222443 -2.16459656 38.38197327 C-2.16570938 37.45283615 -2.1668222 36.52369904 -2.16796875 35.56640625 C-2.17129715 34.61813461 -2.17462555 33.66986298 -2.17805481 32.69285583 C-2.18312819 30.68285611 -2.18546301 28.67284792 -2.18530273 26.6628418 C-2.18748822 23.57912381 -2.20563683 20.49576394 -2.22460938 17.41210938 C-2.22754334 15.4635429 -2.22952812 13.51497471 -2.23046875 11.56640625 C-2.23765427 10.63929337 -2.24483978 9.71218048 -2.25224304 8.75697327 C-2.24916641 7.89945969 -2.24608978 7.04194611 -2.24291992 6.15844727 C-2.24434494 5.40201431 -2.24576996 4.64558136 -2.24723816 3.8662262 C-2 2 -2 2 0 0 Z " fill="#080712" transform="translate(303,106)"/>
<path d="M0 0 C0.33 0.66 0.66 1.32 1 2 C1.54366211 1.83701416 2.08732422 1.67402832 2.64746094 1.50610352 C5.37415471 0.91950781 7.85141293 0.88750752 10.640625 0.90234375 C12.24550781 0.90717773 12.24550781 0.90717773 13.8828125 0.91210938 C14.99398437 0.92048828 16.10515625 0.92886719 17.25 0.9375 C18.93996094 0.94426758 18.93996094 0.94426758 20.6640625 0.95117188 C23.44276217 0.96294603 26.22135409 0.9793916 29 1 C26.23776722 3.76223278 23.79293383 3.57856291 20 4 C20 4.33 20 4.66 20 5 C25.445 5.495 25.445 5.495 31 6 C31.97758625 11.45275886 31.97344509 16.42516763 31.5625 21.9375 C31.51029297 22.71673828 31.45808594 23.49597656 31.40429688 24.29882812 C31.27601936 26.19966772 31.13892679 28.09990904 31 30 C30.67 30 30.34 30 30 30 C30.00523682 29.36908447 30.01047363 28.73816895 30.01586914 28.08813477 C30.03657826 25.24626653 30.04964066 22.40441412 30.0625 19.5625 C30.07506836 18.07266602 30.07506836 18.07266602 30.08789062 16.55273438 C30.09111328 15.60849609 30.09433594 14.66425781 30.09765625 13.69140625 C30.10289307 12.81685791 30.10812988 11.94230957 30.11352539 11.04125977 C30.22784809 9.00559794 30.22784809 9.00559794 29 8 C25.75865202 7.74340047 22.50026948 7.81027512 19.25 7.8125 C18.29875244 7.81185547 17.34750488 7.81121094 16.36743164 7.81054688 C9.91605757 7.85868738 3.83933366 8.34945014 -2.50390625 9.5625 C-5 10 -5 10 -9 10 C-8.67 8.68 -8.34 7.36 -8 6 C-7.01 6 -6.02 6 -5 6 C-5 5.34 -5 4.68 -5 4 C-3.35 3.67 -1.7 3.34 0 3 C0 2.01 0 1.02 0 0 Z " fill="#B053ED" transform="translate(201,115)"/>
<path d="M0 0 C1.9375 0.8125 1.9375 0.8125 4 2 C4.33 2.99 4.66 3.98 5 5 C4.01 6.485 4.01 6.485 3 8 C2.34 8 1.68 8 1 8 C1.515625 8.78375 2.03125 9.5675 2.5625 10.375 C3.036875 11.24125 3.51125 12.1075 4 13 C3.67 13.66 3.34 14.32 3 15 C-3.93 14.505 -3.93 14.505 -11 14 C-11 14.66 -11 15.32 -11 16 C-12.32 15.67 -13.64 15.34 -15 15 C-14.484375 14.443125 -13.96875 13.88625 -13.4375 13.3125 C-11.72495811 11.07852511 -11.72495811 11.07852511 -12.25 8.375 C-12.92658612 6.01589855 -12.92658612 6.01589855 -14 4 C-11 3 -11 3 -8 4 C-5.66700175 4.03954234 -3.33291811 4.04401732 -1 4 C-0.67 2.68 -0.34 1.36 0 0 Z " fill="#8675F1" transform="translate(188,124)"/>
<path d="M0 0 C0.74663406 -0.00095673 1.49326813 -0.00191345 2.26252747 -0.00289917 C3.83509404 -0.00357794 5.40766346 -0.00174479 6.98022461 0.00244141 C9.39638481 0.00781662 11.81236102 0.00247466 14.22851562 -0.00390625 C15.75651083 -0.00324586 17.28450592 -0.00196551 18.8125 0 C19.53849899 -0.00202423 20.26449799 -0.00404846 21.01249695 -0.00613403 C26.09206427 0.01784552 26.09206427 0.01784552 27.20703125 1.1328125 C27.30007143 2.60635598 27.3244939 4.08431841 27.32055664 5.56079102 C27.32048111 6.50169083 27.32040558 7.44259064 27.32032776 8.41200256 C27.31516647 9.43490891 27.31000519 10.45781525 27.3046875 11.51171875 C27.30327255 12.55351791 27.3018576 13.59531708 27.30039978 14.66868591 C27.29478205 18.01092344 27.28222655 21.35309507 27.26953125 24.6953125 C27.26451853 26.95507716 27.25995523 29.21484287 27.25585938 31.47460938 C27.24480686 37.02736641 27.22805149 42.58008475 27.20703125 48.1328125 C23.45877948 44.38456073 24.37242262 38.20717418 24.20703125 33.1328125 C24.23314061 27.68800624 24.42215847 22.2609942 24.64453125 16.8203125 C24.92296875 9.55 24.92296875 9.55 25.20703125 2.1328125 C12.99703125 2.4628125 0.78703125 2.7928125 -11.79296875 3.1328125 C-11.79296875 2.4728125 -11.79296875 1.8128125 -11.79296875 1.1328125 C-7.91536372 -0.12739349 -4.02999648 -0.01133122 0 0 Z " fill="#955BC3" transform="translate(213.79296875,113.8671875)"/>
<path d="M0 0 C1.43352212 0.00015908 2.86704998 0.00585132 4.30053711 0.01586914 C5.43041298 0.01799156 5.43041298 0.01799156 6.58311462 0.02015686 C8.99807646 0.02577163 11.41294687 0.03832656 13.82788086 0.05102539 C15.46134307 0.05603849 17.09480672 0.06060173 18.72827148 0.06469727 C22.74067671 0.07574585 26.75301326 0.09302033 30.76538086 0.11352539 C30.76538086 0.77352539 30.76538086 1.43352539 30.76538086 2.11352539 C19.87538086 2.11352539 8.98538086 2.11352539 -2.23461914 2.11352539 C-1.90461914 4.42352539 -1.57461914 6.73352539 -1.23461914 9.11352539 C0.82137307 9.27023131 0.82137307 9.27023131 2.61987305 8.12573242 C4.99711195 7.00419937 6.48446807 6.88094092 9.09350586 6.91821289 C10.29233398 6.92788086 10.29233398 6.92788086 11.51538086 6.93774414 C12.34038086 6.95450195 13.16538086 6.97125977 14.01538086 6.98852539 C14.85584961 6.99754883 15.69631836 7.00657227 16.56225586 7.01586914 C18.6300869 7.03936722 20.69777081 7.07523632 22.76538086 7.11352539 C22.76538086 7.77352539 22.76538086 8.43352539 22.76538086 9.11352539 C16.16538086 9.44352539 9.56538086 9.77352539 2.76538086 10.11352539 C2.76538086 13.41352539 2.76538086 16.71352539 2.76538086 20.11352539 C2.43538086 20.11352539 2.10538086 20.11352539 1.76538086 20.11352539 C1.76538086 18.13352539 1.76538086 16.15352539 1.76538086 14.11352539 C0.77538086 14.11352539 -0.21461914 14.11352539 -1.23461914 14.11352539 C-1.89461914 15.43352539 -2.55461914 16.75352539 -3.23461914 18.11352539 C-3.56461914 18.11352539 -3.89461914 18.11352539 -4.23461914 18.11352539 C-4.26146226 15.30096258 -4.28138102 12.48865298 -4.29711914 9.67602539 C-4.30549805 8.87358398 -4.31387695 8.07114258 -4.32250977 7.24438477 C-4.33113344 5.20057318 -4.28690064 3.15668637 -4.23461914 1.11352539 C-3.23461914 0.11352539 -3.23461914 0.11352539 0 0 Z " fill="#965CBD" transform="translate(129.234619140625,113.886474609375)"/>
<path d="M0 0 C1.65 0 3.3 0 5 0 C5 1.32 5 2.64 5 4 C5.99 4 6.98 4 8 4 C8.33 3.34 8.66 2.68 9 2 C9.33 3.32 9.66 4.64 10 6 C10.61875 6.04125 11.2375 6.0825 11.875 6.125 C14 7 14 7 15.25 9.375 C16.25640848 14.23930764 16.52824068 19.05162779 16 24 C15.34 24.99 14.68 25.98 14 27 C13.67 23.04 13.34 19.08 13 15 C12.34 15 11.68 15 11 15 C10.34 14.34 9.68 13.68 9 13 C8.96261719 13.62648437 8.92523438 14.25296875 8.88671875 14.8984375 C8.82097656 15.71570313 8.75523437 16.53296875 8.6875 17.375 C8.62949219 18.18710938 8.57148438 18.99921875 8.51171875 19.8359375 C8 22 8 22 5 24 C5.05800781 23.31035156 5.11601562 22.62070313 5.17578125 21.91015625 C5.48972683 15.37111829 4.72015322 11.35489819 1.09375 5.875 C-0.14832124 3.74573502 0 2.44318229 0 0 Z " fill="#618CD4" transform="translate(189,143)"/>
<path d="M0 0 C0.33 0 0.66 0 1 0 C2.06731976 4.58947495 1.73154496 6.72206538 0 11 C-0.51551845 15.76611402 -0.17354758 19.65290484 2 24 C0.0625 23.375 0.0625 23.375 -2 22 C-2.75 18.875 -2.75 18.875 -3 16 C-4.65 15.67 -6.3 15.34 -8 15 C-8.33 17.97 -8.66 20.94 -9 24 C-11.94285198 18.11429604 -11.3649801 12.91984079 -10.5625 6.5 C-9 4 -9 4 -6.86328125 3.1953125 C-4.5760436 2.67107907 -2.32903476 2.27795065 0 2 C0 1.34 0 0.68 0 0 Z " fill="#648FE1" transform="translate(172,146)"/>
<path d="M0 0 C0.66 0 1.32 0 2 0 C2 10.23 2 20.46 2 31 C1.67 31 1.34 31 1 31 C0.34 28.03 -0.32 25.06 -1 22 C-2.32 21.67 -3.64 21.34 -5 21 C-5.02691685 18.54159395 -5.04679802 16.08348118 -5.0625 13.625 C-5.07087891 12.92632812 -5.07925781 12.22765625 -5.08789062 11.5078125 C-5.11328125 6.2265625 -5.11328125 6.2265625 -4 4 C-3.01 4 -2.02 4 -1 4 C-0.67 2.68 -0.34 1.36 0 0 Z " fill="#8576E7" transform="translate(132,124)"/>
<path d="M0 0 C0.33 0 0.66 0 1 0 C1.02505615 0.89082275 1.0501123 1.78164551 1.07592773 2.69946289 C1.17245652 6.08234817 1.27157684 9.46513877 1.37231445 12.84790039 C1.41498015 14.2974156 1.4566846 15.7469595 1.49731445 17.1965332 C1.41703587 33.42477604 1.41703587 33.42477604 3.59545898 49.35571289 C3.72895752 49.89832764 3.86245605 50.44094238 4 51 C3.505 51.495 3.505 51.495 3 52 C2.84417697 53.34015221 2.74955858 54.68758903 2.68359375 56.03515625 C2.64169922 56.84404297 2.59980469 57.65292969 2.55664062 58.48632812 C2.51732422 59.33646484 2.47800781 60.18660156 2.4375 61.0625 C2.39431641 61.91650391 2.35113281 62.77050781 2.30664062 63.65039062 C2.20023298 65.76672037 2.09958269 67.88333813 2 70 C-4.75 71 -4.75 71 -7 71 C-7 70.34 -7 69.68 -7 69 C-4.69 69 -2.38 69 0 69 C0 46.23 0 23.46 0 0 Z " fill="#6AB9C3" transform="translate(231,152)"/>
<path d="M0 0 C0 0.66 0 1.32 0 2 C-1.65 2.33 -3.3 2.66 -5 3 C-5 3.66 -5 4.32 -5 5 C-5.99 5.33 -6.98 5.66 -8 6 C-8 6.99 -8 7.98 -8 9 C-7.21625 8.690625 -6.4325 8.38125 -5.625 8.0625 C2.41686268 5.70540232 10.80489337 5.86154397 19.125 5.9375 C20.55972656 5.94426758 20.55972656 5.94426758 22.0234375 5.95117188 C24.34902758 5.96279983 26.6744776 5.97913898 29 6 C29 6.33 29 6.66 29 7 C27.27716797 7.05607422 27.27716797 7.05607422 25.51953125 7.11328125 C7.38206712 7.81182033 7.38206712 7.81182033 -9 15 C-9.33 13.35 -9.66 11.7 -10 10 C-10.99 10 -11.98 10 -13 10 C-13.33 10.66 -13.66 11.32 -14 12 C-15.32 12 -16.64 12 -18 12 C-16.56323497 8.45034523 -14.88698102 6.92912058 -11.6875 4.875 C-10.92824219 4.37742187 -10.16898438 3.87984375 -9.38671875 3.3671875 C-3.50857143 0 -3.50857143 0 0 0 Z " fill="#9865D1" transform="translate(201,116)"/>
<path d="M0 0 C2.16874252 0.50603992 3.99967627 0.99983813 6 2 C6.61875 3.670625 6.61875 3.670625 7.25 5.375 C8.53846792 8.6262118 8.95969856 8.97550305 12.1875 10.9375 C13.115625 11.288125 14.04375 11.63875 15 12 C13.25 13.125 13.25 13.125 11 14 C8.75 13.125 8.75 13.125 7 12 C6.34 13.32 5.68 14.64 5 16 C6.32 16.33 7.64 16.66 9 17 C8.67 17.99 8.34 18.98 8 20 C4.81041361 17.58625895 2.06107045 15.4510947 0 12 C-0.29296875 8.984375 -0.29296875 8.984375 -0.1875 5.75 C-0.14689453 4.13351563 -0.14689453 4.13351563 -0.10546875 2.484375 C-0.07066406 1.66453125 -0.03585938 0.8446875 0 0 Z " fill="#4B9BE7" transform="translate(163,160)"/>
<path d="M0 0 C0.33 0 0.66 0 1 0 C1 19.14 1 38.28 1 58 C4.96 58.495 4.96 58.495 9 59 C5.57602277 61.10706291 2.96057533 61.08680713 -1 61 C-1.1250153 40.63596918 -0.91266672 20.34809861 0 0 Z " fill="#6FC3CD" transform="translate(134,161)"/>
<path d="M0 0 C0.33 1.32 0.66 2.64 1 4 C1.66 4 2.32 4 3 4 C3 11.26 3 18.52 3 26 C2.01 26.33 1.02 26.66 0 27 C0 26.34 0 25.68 0 25 C-0.66 25 -1.32 25 -2 25 C-1.8608331 21.58302762 -1.71250415 18.16651243 -1.5625 14.75 C-1.52318359 13.78191406 -1.48386719 12.81382812 -1.44335938 11.81640625 C-1.40146484 10.88183594 -1.35957031 9.94726562 -1.31640625 8.984375 C-1.27974854 8.12553711 -1.24309082 7.26669922 -1.20532227 6.38183594 C-1.01296486 4.15039857 -0.61153756 2.15017476 0 0 Z " fill="#7B7FE2" transform="translate(233,124)"/>
<path d="M0 0 C0.33 0 0.66 0 1 0 C1.66 1.98 2.32 3.96 3 6 C3.63292969 5.50886719 4.26585937 5.01773438 4.91796875 4.51171875 C9.1350605 2.4432593 12.68906727 2.67018439 17.3125 2.8125 C18.14845703 2.82603516 18.98441406 2.83957031 19.84570312 2.85351562 C21.89741498 2.88868783 23.94879275 2.94248952 26 3 C26 3.66 26 4.32 26 5 C19.4 5.33 12.8 5.66 6 6 C6 9.3 6 12.6 6 16 C5.67 16 5.34 16 5 16 C5 14.02 5 12.04 5 10 C4.01 10 3.02 10 2 10 C1.67 10.66 1.34 11.32 1 12 C-0.26237731 9.47524538 -0.09856404 7.68799534 -0.0625 4.875 C-0.05347656 3.96492188 -0.04445313 3.05484375 -0.03515625 2.1171875 C-0.02355469 1.41851562 -0.01195313 0.71984375 0 0 Z " fill="#9C63DE" transform="translate(126,118)"/>
<path d="M0 0 C1.9375 0.8125 1.9375 0.8125 4 2 C4.33 2.99 4.66 3.98 5 5 C3 8 3 8 0.90625 8.4765625 C-0.28484375 8.55003906 -0.28484375 8.55003906 -1.5 8.625 C-4.87761268 8.82462241 -4.87761268 8.82462241 -8 10 C-8 9.34 -8 8.68 -8 8 C-8.66 8 -9.32 8 -10 8 C-10 7.34 -10 6.68 -10 6 C-11.32 5.67 -12.64 5.34 -14 5 C-13.01 4.34 -12.02 3.68 -11 3 C-10.01 3.33 -9.02 3.66 -8 4 C-5.66700175 4.03954234 -3.33291811 4.04401732 -1 4 C-0.67 2.68 -0.34 1.36 0 0 Z " fill="#9A67F4" transform="translate(188,124)"/>
<path d="M0 0 C1.65 0 3.3 0 5 0 C5.50404808 2.10320063 6.00310508 4.20759791 6.5 6.3125 C6.7784375 7.48425781 7.056875 8.65601563 7.34375 9.86328125 C8 13 8 13 8 16 C6.35 15.67 4.7 15.34 3 15 C1.74458443 11.23375329 2.62938042 9.62811066 4 6 C3.34 6 2.68 6 2 6 C2 6.66 2 7.32 2 8 C1.34 8 0.68 8 0 8 C0 5.36 0 2.72 0 0 Z " fill="#5D8FE9" transform="translate(127,145)"/>
<path d="M0 0 C0.66 0.33 1.32 0.66 2 1 C-2.0785559 6.21906393 -5.37106532 10.26126303 -12 12 C-16.02533392 12.31561101 -19.98426104 12.46921381 -24 12 C-24.66 11.34 -25.32 10.68 -26 10 C-24.7315625 9.96132812 -24.7315625 9.96132812 -23.4375 9.921875 C-14.74435829 9.48721791 -8.33726616 8.44643802 -2 2.25 C-1.34 1.5075 -0.68 0.765 0 0 Z " fill="#4FA2D0" transform="translate(201,171)"/>
<path d="M0 0 C0.33 0 0.66 0 1 0 C1 11.22 1 22.44 1 34 C-2.41940688 30.58059312 -1.91251136 25.81658909 -2.02880859 21.14355469 C-1.93375443 14.0708808 -0.89529442 7.00697366 0 0 Z " fill="#6A78C5" transform="translate(240,128)"/>
<path d="M0 0 C0.33 0 0.66 0 1 0 C1 4.29 1 8.58 1 13 C-0.32 13 -1.64 13 -3 13 C-3.66 13.66 -4.32 14.32 -5 15 C-5 10.71 -5 6.42 -5 2 C-3.02 2.99 -3.02 2.99 -1 4 C-0.67 2.68 -0.34 1.36 0 0 Z " fill="#43D3CD" transform="translate(238,205)"/>
<path d="M0 0 C0.66 0.33 1.32 0.66 2 1 C2 1.66 2 2.32 2 3 C2.66 3 3.32 3 4 3 C4.33 4.98 4.66 6.96 5 9 C4.01 8.67 3.02 8.34 2 8 C1.67 9.65 1.34 11.3 1 13 C0.01 13.33 -0.98 13.66 -2 14 C-2 11.02125433 -1.8790419 8.25877459 -1.5625 5.3125 C-1.48128906 4.52488281 -1.40007812 3.73726562 -1.31640625 2.92578125 C-1 1 -1 1 0 0 Z " fill="#4F9AF0" transform="translate(198,155)"/>
<path d="M0 0 C0 0.99 0 1.98 0 3 C-1.5823006 3.33820166 -3.16589375 3.67035939 -4.75 4 C-6.07257813 4.2784375 -6.07257813 4.2784375 -7.421875 4.5625 C-10 5 -10 5 -14 5 C-13.67 3.68 -13.34 2.36 -13 1 C-12.01 1 -11.02 1 -10 1 C-10 0.34 -10 -0.32 -10 -1 C-6.06329512 -2.31223496 -3.87511856 -1.24296256 0 0 Z " fill="#AA5FF5" transform="translate(206,120)"/>
<path d="M0 0 C1.65 0 3.3 0 5 0 C5 1.32 5 2.64 5 4 C5.99 4 6.98 4 8 4 C8.33 3.34 8.66 2.68 9 2 C9.103125 2.639375 9.20625 3.27875 9.3125 3.9375 C9.6528125 4.9584375 9.6528125 4.9584375 10 6 C10.99 6.33 11.98 6.66 13 7 C12.67 7.99 12.34 8.98 12 10 C7.46153846 10 7.46153846 10 5 9 C3.95107762 7.36368108 2.95093297 5.69514137 2 4 C1.01 3.34 0.02 2.68 -1 2 C-0.67 1.34 -0.34 0.68 0 0 Z " fill="#6A86F0" transform="translate(189,143)"/>
<path d="M0 0 C0.33 0 0.66 0 1 0 C2.97091531 21.50409385 2.97091531 21.50409385 1 32 C0.67 32 0.34 32 0 32 C-0.69144537 24.78921259 -1.10512309 17.61681979 -1.125 10.375 C-1.12951172 9.68857422 -1.13402344 9.00214844 -1.13867188 8.29492188 C-1.12956617 5.25057988 -0.97060063 2.91180188 0 0 Z " fill="#45AFE2" transform="translate(233,165)"/>
<path d="M0 0 C1.62463842 -0.05395478 3.24978541 -0.09277195 4.875 -0.125 C5.77992188 -0.14820312 6.68484375 -0.17140625 7.6171875 -0.1953125 C10 0 10 0 12 2 C13.7325 2.7425 13.7325 2.7425 15.5 3.5 C19 5 19 5 21 7 C20.67 7.99 20.34 8.98 20 10 C19.360625 9.401875 18.72125 8.80375 18.0625 8.1875 C12.67686663 4.34061902 6.52454704 2.83648039 0 2 C0 1.34 0 0.68 0 0 Z " fill="#9A5ED5" transform="translate(154,122)"/>
<path d="M0 0 C0.66 0.33 1.32 0.66 2 1 C1.46280028 5.56619764 -0.38945092 8.27064418 -3 12 C-4.37495215 14.31178395 -5.68559164 16.65284221 -7 19 C-7.66 19 -8.32 19 -9 19 C-9.33 19.66 -9.66 20.32 -10 21 C-10.33 20.34 -10.66 19.68 -11 19 C-8.77328577 14.27032503 -5.99652617 9.67389899 -2.125 6.125 C-1.42375 5.42375 -0.7225 4.7225 0 4 C0 2.68 0 1.36 0 0 Z " fill="#6976D3" transform="translate(175,130)"/>
<path d="M0 0 C3.10148341 0.0132542 6.0002855 0.17907985 9 1 C11.5625 4.0625 11.5625 4.0625 13 7 C10.33333333 5.66666667 7.66666667 4.33333333 5 3 C2.36 6.3 -0.28 9.6 -3 13 C-3.33 12.01 -3.66 11.02 -4 10 C-3.67 9.34 -3.34 8.68 -3 8 C-2.34 8 -1.68 8 -1 8 C-0.67 5.36 -0.34 2.72 0 0 Z " fill="#7677D1" transform="translate(177,138)"/>
<path d="M0 0 C0.556875 0.350625 1.11375 0.70125 1.6875 1.0625 C4.53886783 2.21845993 6.08517222 1.80967438 9 1 C9 1.66 9 2.32 9 3 C9.66 3.33 10.32 3.66 11 4 C9.02 4.33 7.04 4.66 5 5 C5 5.66 5 6.32 5 7 C0.25 6.125 0.25 6.125 -2 5 C-1.34 3.35 -0.68 1.7 0 0 Z " fill="#33ADF0" transform="translate(170,171)"/>
<path d="M0 0 C0.99 0.33 1.98 0.66 3 1 C3.25 4.3125 3.25 4.3125 3 8 C1.125 9.9375 1.125 9.9375 -1 11 C-1.66 11 -2.32 11 -3 11 C-3.33 9.35 -3.66 7.7 -4 6 C-3.01 5.34 -2.02 4.68 -1 4 C-0.27617533 1.94074861 -0.27617533 1.94074861 0 0 Z " fill="#3FA3FA" transform="translate(200,163)"/>
<path d="M0 0 C1.32 0.66 2.64 1.32 4 2 C4.75 5.625 4.75 5.625 5 9 C4.34 9 3.68 9 3 9 C2.67 9.66 2.34 10.32 2 11 C1.01 10.34 0.02 9.68 -1 9 C-0.67 6.03 -0.34 3.06 0 0 Z " fill="#44A1F7" transform="translate(165,160)"/>
<path d="M0 0 C7.31970789 1.18059805 13.01748225 3.55552084 19 8 C19.99 9.485 19.99 9.485 21 11 C17.69691546 9.86456469 15.00248031 8.37448091 12.125 6.4375 C8.34011191 3.99099439 5.47140203 3.27946263 1 3 C0.67 2.01 0.34 1.02 0 0 Z " fill="#9D68C9" transform="translate(161,115)"/>
<path d="M0 0 C2 0 2 0 3.70703125 0.98828125 C5.49847077 3.7755663 4.83521597 5.81812685 4.19726562 8.95117188 C4.02904297 9.68916016 3.86082031 10.42714844 3.6875 11.1875 C3.53087891 11.93708984 3.37425781 12.68667969 3.21289062 13.45898438 C2.82397308 15.30928904 2.41397878 17.15514072 2 19 C1.67 19 1.34 19 1 19 C0.67 12.73 0.34 6.46 0 0 Z " fill="#5795E6" transform="translate(231,149)"/>
<path d="M0 0 C3 1 3 1 3.93359375 2.75 C4.28550781 3.4925 4.63742188 4.235 5 5 C7.01636627 7.57303181 9.11581122 10.06324079 11.22265625 12.5625 C12.88042985 14.83601808 13.58742426 16.25795816 14 19 C10.54432016 17.84810672 10.3427972 17.33882057 8.625 14.3125 C7.00554332 11.56923853 5.361051 9.13560965 3.25 6.75 C1.24493151 4.29936074 0.35489534 3.07575965 0 0 Z " fill="#7A78C6" transform="translate(188,131)"/>
<path d="M0 0 C1.125 1.6875 1.125 1.6875 1.125 3.6875 C-3.03638263 3.76909574 -6.8222484 3.66998524 -10.875 2.6875 C-9.0030856 0.29560938 -7.84853044 -0.32022029 -4.875 -1.1875 C-1.875 -1.3125 -1.875 -1.3125 0 0 Z " fill="#AA59FB" transform="translate(170.875,120.3125)"/>
<path d="M0 0 C0.33 0 0.66 0 1 0 C1.33 5.28 1.66 10.56 2 16 C1.01 16 0.02 16 -1 16 C-1.09688221 10.55306686 -1.12862175 5.36095333 0 0 Z " fill="#47C2D9" transform="translate(131,191)"/>
<path d="M0 0 C0.66 0.66 1.32 1.32 2 2 C1.67 2.66 1.34 3.32 1 4 C-0.61278002 8.83834006 -0.61278002 13.16165994 1 18 C1.33 18.66 1.66 19.32 2 20 C0.05859375 19.32421875 0.05859375 19.32421875 -2 18 C-3.52206562 12.98466902 -3.64700361 7.65648933 -1.5625 2.8125 C-1.046875 1.884375 -0.53125 0.95625 0 0 Z " fill="#5490CA" transform="translate(172,150)"/>
<path d="M0 0 C0.33 1.32 0.66 2.64 1 4 C1.66 4 2.32 4 3 4 C3 7.3 3 10.6 3 14 C2.01 14.495 2.01 14.495 1 15 C-0.09506492 11.71480525 -0.09960608 9.26336585 -0.0625 5.8125 C-0.05347656 4.72582031 -0.04445312 3.63914062 -0.03515625 2.51953125 C-0.02355469 1.68808594 -0.01195312 0.85664062 0 0 Z " fill="#916FEB" transform="translate(233,124)"/>
<path d="M0 0 C0.33 0 0.66 0 1 0 C1.06058594 1.03640625 1.12117187 2.0728125 1.18359375 3.140625 C1.26803371 4.51042873 1.35267997 5.88021975 1.4375 7.25 C1.47681641 7.93191406 1.51613281 8.61382812 1.55664062 9.31640625 C1.7290623 12.04862665 1.91146374 14.65517457 2.59375 17.3125 C3.21895721 19.90951455 2.10562188 21.65868307 1 24 C0.67 24 0.34 24 0 24 C0 16.08 0 8.16 0 0 Z " fill="#59C6DA" transform="translate(232,184)"/>
<path d="M0 0 C1.65 0 3.3 0 5 0 C6.125 3.75 6.125 3.75 5 6 C4.01 6 3.02 6 2 6 C2 6.66 2 7.32 2 8 C1.34 8 0.68 8 0 8 C0 5.36 0 2.72 0 0 Z " fill="#6D86F4" transform="translate(127,145)"/>
<path d="M0 0 C0.66 0 1.32 0 2 0 C2 0.66 2 1.32 2 2 C5.50935186 2 8.56484998 1.62457273 12 1 C12 1.99 12 2.98 12 4 C4.375 6 4.375 6 1 6 C0.67 4.02 0.34 2.04 0 0 Z " fill="#9070F5" transform="translate(176,130)"/>
<path d="M0 0 C0.598125 0.185625 1.19625 0.37125 1.8125 0.5625 C4.16408762 1.22093687 4.16408762 1.22093687 7 0 C7.1875 2.875 7.1875 2.875 7 6 C6.01 6.66 5.02 7.32 4 8 C4 7.34 4 6.68 4 6 C3.34 6 2.68 6 2 6 C1.34 4.02 0.68 2.04 0 0 Z " fill="#A264F4" transform="translate(232,122)"/>
<path d="M0 0 C0.80179688 0.05220703 1.60359375 0.10441406 2.4296875 0.15820312 C4.41179103 0.28798371 6.39344499 0.42459735 8.375 0.5625 C8.375 0.8925 8.375 1.2225 8.375 1.5625 C-1.03 2.0575 -1.03 2.0575 -10.625 2.5625 C-10.625 1.9025 -10.625 1.2425 -10.625 0.5625 C-7.2967269 -1.10163655 -3.62766027 -0.25617406 0 0 Z " fill="#50D9C3" transform="translate(144.625,221.4375)"/>
<path d="M0 0 C0.66 0.33 1.32 0.66 2 1 C0.90344712 2.31886772 -0.20253423 3.62990057 -1.3125 4.9375 C-1.92738281 5.66839844 -2.54226562 6.39929688 -3.17578125 7.15234375 C-5 9 -5 9 -8 10 C-8 7 -8 7 -6.25 5.17578125 C-5.5075 4.56089844 -4.765 3.94601563 -4 3.3125 C-3.2575 2.68988281 -2.515 2.06726563 -1.75 1.42578125 C-1.1725 0.95527344 -0.595 0.48476562 0 0 Z " fill="#4F9CC5" transform="translate(201,171)"/>
<path d="M0 0 C0.33 0.66 0.66 1.32 1 2 C-0.07192184 3.3218362 -1.15802695 4.63217927 -2.25 5.9375 C-2.85328125 6.66839844 -3.4565625 7.39929688 -4.078125 8.15234375 C-6.10741134 10.10326334 -7.254407 10.61731779 -10 11 C-9.67 10.34 -9.34 9.68 -9 9 C-8.34 9 -7.68 9 -7 9 C-6.9175 8.38125 -6.835 7.7625 -6.75 7.125 C-6 5 -6 5 -4.0625 3.9375 C-3.381875 3.628125 -2.70125 3.31875 -2 3 C-1.34 2.01 -0.68 1.02 0 0 Z " fill="#03010A" transform="translate(493,225)"/>
<path d="M0 0 C1.9453125 0.77734375 1.9453125 0.77734375 4.125 1.9375 C5.21167969 2.50791016 5.21167969 2.50791016 6.3203125 3.08984375 C6.87460938 3.39019531 7.42890625 3.69054687 8 4 C6.140625 5.0546875 6.140625 5.0546875 4 6 C1.75 5.125 1.75 5.125 0 4 C-0.66 4.66 -1.32 5.32 -2 6 C-2 4.35 -2 2.7 -2 1 C-1.34 0.67 -0.68 0.34 0 0 Z " fill="#42A2E4" transform="translate(170,168)"/>
<path d="M0 0 C0 0.66 0 1.32 0 2 C-1.65 2.33 -3.3 2.66 -5 3 C-5 3.66 -5 4.32 -5 5 C-7.31 5.33 -9.62 5.66 -12 6 C-9.1490916 2.47828963 -4.56486714 0 0 0 Z " fill="#9564BC" transform="translate(201,116)"/>
<path d="M0 0 C0.66 0.33 1.32 0.66 2 1 C1.45773019 4.79588866 -0.20127563 6.47211993 -3 9 C-2.25 2.25 -2.25 2.25 0 0 Z " fill="#5B93F9" transform="translate(167,152)"/>
<path d="M0 0 C0.66 0.33 1.32 0.66 2 1 C1.67566492 6.35152885 -1.49704824 9.28280043 -5 13 C-5.33 12.34 -5.66 11.68 -6 11 C-5.566875 10.54109375 -5.13375 10.0821875 -4.6875 9.609375 C-3.8521875 8.68898437 -3.8521875 8.68898437 -3 7.75 C-2.443125 7.14671875 -1.88625 6.5434375 -1.3125 5.921875 C0.37597443 3.837347 0.37597443 3.837347 0 0 Z " fill="#7869C9" transform="translate(175,130)"/>
<path d="M0 0 C1.5 1.375 1.5 1.375 3 3 C3 3.66 3 4.32 3 5 C4.32 5.33 5.64 5.66 7 6 C6.67 6.99 6.34 7.98 6 9 C2.75700849 6.61042731 0.49097658 4.7952131 -1 1 C-0.67 0.67 -0.34 0.34 0 0 Z " fill="#4D9ED5" transform="translate(165,171)"/>
<path d="M0 0 C0.33 0 0.66 0 1 0 C1.3125 2.3125 1.3125 2.3125 1 5 C-1.5 6.8125 -1.5 6.8125 -4 8 C-3.67 6.35 -3.34 4.7 -3 3 C-2.01 2.67 -1.02 2.34 0 2 C0 1.34 0 0.68 0 0 Z " fill="#3C9FE1" transform="translate(202,166)"/>
<path d="M0 0 C1.85776765 3.13498292 2.20140476 5.37471432 2 9 C1.67 8.01 1.34 7.02 1 6 C0.01 5.67 -0.98 5.34 -2 5 C-1.125 1.125 -1.125 1.125 0 0 Z " fill="#4F96E8" transform="translate(168,156)"/>
<path d="M0 0 C0.33 0.66 0.66 1.32 1 2 C0.0625 4.125 0.0625 4.125 -1 6 C-2.32 6 -3.64 6 -5 6 C-3.63016497 2.83884224 -3.0109362 2.0072908 0 0 Z " fill="#9667D9" transform="translate(188,122)"/>
<path d="M0 0 C0.99 0.66 1.98 1.32 3 2 C3 2.66 3 3.32 3 4 C1.02 4 -0.96 4 -3 4 C-3 3.01 -3 2.02 -3 1 C-2.01 0.67 -1.02 0.34 0 0 Z " fill="#3BAEE1" transform="translate(175,177)"/>
<path d="" fill="#000000" transform="translate(0,0)"/>
</svg>
